<svg viewBox="0 200 500 100" xmlns="http://www.w3.org/2000/svg">
  <g id="g12" transform="matrix(0.229467, 0, 0, -0.229467, -80.596672, 579.893616)" style="">
    <path
      d="m 570.051,1608.18 c -92.738,0 -168.188,-75.45 -168.188,-168.18 0,-92.73 75.45,-168.18 168.188,-168.18 92.73,0 168.176,75.45 168.176,168.18 0,92.73 -75.446,168.18 -168.176,168.18 z m 0,-372.09 c -112.438,0 -203.914,91.47 -203.914,203.91 0,112.44 91.476,203.91 203.914,203.91 112.429,0 203.902,-91.47 203.902,-203.91 0,-112.44 -91.473,-203.91 -203.902,-203.91"
      style="fill:#1E90FF;fill-opacity:1;fill-rule:nonzero;stroke:none" id="path16" />
    <path
      d="m 570.051,1608.18 c -92.738,0 -168.188,-75.45 -168.188,-168.18 0,-92.73 75.45,-168.18 168.188,-168.18 92.73,0 168.176,75.45 168.176,168.18 0,92.73 -75.446,168.18 -168.176,168.18 z m 0,-372.09 c -112.438,0 -203.914,91.47 -203.914,203.91 0,112.44 91.476,203.91 203.914,203.91 112.429,0 203.902,-91.47 203.902,-203.91 0,-112.44 -91.473,-203.91 -203.902,-203.91"
      style="fill:#1E90FF;fill-opacity:1;fill-rule:nonzero;stroke:none" id="path18" />
    <path d="m 587.91,1241.43 h -35.726 v 385.85 h 35.726 v -385.85"
      style="fill:#1E90FF;fill-opacity:1;fill-rule:nonzero;stroke:none" id="path20" />
    <path d="m 587.91,1239.64 h -35.726 v 385.85 h 35.726 v -385.85"
      style="fill:#1E90FF;fill-opacity:1;fill-rule:nonzero;stroke:none" id="path22" />
    <path
      d="m 552.895,1396.39 c -18.637,63.84 -65.942,118.25 -129.79,149.26 l 15.618,32.14 c 72.898,-35.41 127.015,-97.88 148.472,-171.38 l -34.3,-10.02"
      style="fill:#1E90FF;fill-opacity:1;fill-rule:nonzero;stroke:none" id="path24" />
    <path d="m 587.91,1241.43 h -35.726 v 385.85 h 35.726 v -385.85"
      style="fill:#1E90FF;fill-opacity:1;fill-rule:nonzero;stroke:none" id="path26" />
    <path
      d="m 580.563,1365.87 -24.657,25.86 c 55.434,52.84 133.574,79.71 214.407,73.84 l -2.61,-35.64 c -70.773,5.19 -139.004,-18.17 -187.14,-64.06"
      style="fill:#1E90FF;fill-opacity:1;fill-rule:nonzero;stroke:none" id="path28" />
    <path
      d="m 559.531,1365.87 24.653,25.86 c -55.422,52.84 -133.575,79.71 -214.399,73.84 l 2.61,-35.64 c 70.769,5.19 138.996,-18.17 187.136,-64.06"
      style="fill:#1E90FF;fill-opacity:1;fill-rule:nonzero;stroke:none" id="path30" />
    <path d="m 587.91,1239.64 h -35.726 v 385.85 h 35.726 v -385.85"
      style="fill:#1E90FF;fill-opacity:1;fill-rule:nonzero;stroke:none" id="path32" />
    <path
      d="m 587.195,1396.39 -34.3,10.02 c 21.464,73.5 75.582,135.97 148.476,171.38 l 15.617,-32.14 c -63.847,-31.01 -111.152,-85.42 -129.793,-149.26"
      style="fill:#1E90FF;fill-opacity:1;fill-rule:nonzero;stroke:none" id="path34" />
    <path
      d="m 967.582,1483.11 c 3.703,-0.52 6.926,-1.21 9.684,-2.07 v -34.33 c -2.93,0.86 -6.801,1.72 -11.621,2.58 -4.821,0.86 -9.204,1.29 -13.165,1.29 -7.738,0 -13.679,-2.41 -17.808,-7.22 -4.129,-4.82 -6.195,-11.79 -6.195,-20.91 v -76.93 h -39.754 v 136.56 h 16.004 l 13.164,-19.88 h 1.031 c 4.129,6.54 9.379,11.79 15.75,15.74 6.363,3.96 13.512,5.95 21.426,5.95 3.961,0 7.789,-0.27 11.484,-0.78"
      style="fill:#FFFFFF;fill-opacity:1;fill-rule:nonzero;stroke:none" id="path36" />
    <path
      d="m 1092.17,1383.98 c 4.99,6.71 7.49,16.52 7.49,29.43 0,12.91 -2.5,22.72 -7.49,29.43 -4.99,6.71 -12.31,10.07 -21.94,10.07 -9.29,0 -16.52,-3.36 -21.69,-10.07 -5.16,-6.71 -7.73,-16.52 -7.73,-29.43 0,-12.91 2.57,-22.72 7.73,-29.43 5.17,-6.7 12.4,-10.06 21.69,-10.06 9.63,0 16.95,3.36 21.94,10.06 z m 7.75,94.61 c 8.6,-3.53 15.78,-8.48 21.55,-14.84 5.77,-6.37 10.15,-13.86 13.16,-22.46 3.02,-8.6 4.53,-17.9 4.53,-27.88 0,-10.15 -1.51,-19.49 -4.53,-28.01 -3.01,-8.52 -7.39,-15.96 -13.16,-22.33 -5.77,-6.36 -12.95,-11.31 -21.55,-14.84 -8.61,-3.53 -18.5,-5.29 -29.69,-5.29 -11.19,0 -21.08,1.76 -29.69,5.29 -8.6,3.53 -15.78,8.48 -21.55,14.84 -5.77,6.37 -10.16,13.81 -13.16,22.33 -3.02,8.52 -4.52,17.86 -4.52,28.01 0,9.98 1.5,19.28 4.52,27.88 3,8.6 7.39,16.09 13.16,22.46 5.77,6.36 12.95,11.31 21.55,14.84 8.61,3.53 18.5,5.3 29.69,5.3 11.19,0 21.08,-1.77 29.69,-5.3"
      style="fill:#FFFFFF;fill-opacity:1;fill-rule:nonzero;stroke:none" id="path38" />
    <path
      d="m 1311.65,1345 h -16.01 l -12.91,19.62 h -1.03 c -5.68,-6.19 -12.6,-11.36 -20.78,-15.48 -8.17,-4.14 -17.08,-6.2 -26.72,-6.2 -8.95,0 -16.78,1.55 -23.49,4.64 -6.71,3.1 -12.35,7.27 -16.91,12.52 -4.56,5.25 -7.96,11.45 -10.2,18.59 -2.23,7.14 -3.35,14.84 -3.35,23.1 v 79.51 H 1220 v -75.37 c 0,-5 0.39,-9.47 1.17,-13.43 0.77,-3.96 2.1,-7.31 4,-10.07 1.89,-2.75 4.43,-4.86 7.61,-6.32 3.19,-1.46 7.27,-2.19 12.26,-2.19 2.76,0 5.68,0.56 8.78,1.67 3.1,1.12 6.02,2.72 8.78,4.78 2.75,2.06 5.03,4.61 6.84,7.61 1.81,3.02 2.71,6.5 2.71,10.46 v 82.86 h 39.5 V 1345"
      style="fill:#FFFFFF;fill-opacity:1;fill-rule:nonzero;stroke:none" id="path40" />
    <path
      d="m 1408.23,1396.63 c 0,-9.46 1.08,-15.74 3.23,-18.84 2.15,-3.1 5.46,-4.65 9.94,-4.65 3.44,0 7.4,0.18 11.87,0.52 4.47,0.34 8,0.6 10.59,0.77 v -28.65 c -1.9,-0.17 -4.13,-0.35 -6.72,-0.52 -2.58,-0.17 -5.25,-0.3 -8,-0.39 l -8.26,-0.25 c -2.75,-0.09 -5.25,-0.13 -7.49,-0.13 -14.45,0 -25.51,3.87 -33.17,11.61 -7.66,7.75 -11.48,19.36 -11.48,34.85 v 59.37 h -19.36 v 30.98 h 19.36 v 44.4 h 39.49 v -44.4 h 35.63 v -30.98 h -35.63 v -53.69"
      style="fill:#FFFFFF;fill-opacity:1;fill-rule:nonzero;stroke:none" id="path42" />
    <path
      d="m 1528.04,1448.26 c -5.16,-4.13 -8.61,-11.1 -10.33,-20.91 h 57.06 c -0.86,8.95 -3.75,15.7 -8.65,20.27 -4.9,4.55 -11.32,6.84 -19.24,6.84 -7.39,0 -13.68,-2.07 -18.84,-6.2 z m 85.31,-41.82 c -0.08,-1.21 -0.21,-2.41 -0.38,-3.61 h -95.51 c 1.37,-10.84 4.6,-18.63 9.67,-23.37 5.09,-4.73 11.49,-7.1 19.24,-7.1 6.71,0 12.3,1.6 16.78,4.78 4.47,3.19 7.48,7.27 9.03,12.26 h 38.72 c -3.95,-14.28 -11.44,-25.6 -22.45,-33.95 -11.02,-8.34 -25.13,-12.51 -42.34,-12.51 -11.19,0 -21.08,1.81 -29.69,5.42 -8.6,3.61 -15.83,8.56 -21.68,14.84 -5.85,6.28 -10.24,13.73 -13.17,22.33 -2.92,8.61 -4.38,17.9 -4.38,27.88 0,9.98 1.5,19.28 4.51,27.88 3.02,8.6 7.45,16.05 13.3,22.33 5.85,6.28 13.12,11.23 21.81,14.84 8.69,3.62 18.63,5.43 29.82,5.43 11.01,0 20.78,-1.85 29.3,-5.56 8.51,-3.7 15.61,-8.69 21.29,-14.97 5.69,-6.28 9.94,-13.72 12.78,-22.33 2.84,-8.6 4,-17.81 3.49,-27.62 v -3.62 c 0,-1.03 -0.05,-2.14 -0.14,-3.35"
      style="fill:#FFFFFF;fill-opacity:1;fill-rule:nonzero;stroke:none" id="path44" />
    <path
      d="m 1708.53,1505.95 c -1.72,-1.46 -3.01,-3.35 -3.88,-5.68 -0.86,-2.32 -1.32,-4.85 -1.41,-7.61 -0.09,-2.75 -0.13,-5.42 -0.13,-8 v -3.36 h 34.85 v -30.98 h -34.85 v -104.8 h -39.76 v 104.8 h -19.87 v 30.98 h 19.87 v 9.04 c 0,14.8 3.66,26.29 10.98,34.46 7.31,8.17 18.54,12.26 33.68,12.26 4.99,0 9.98,-0.13 14.97,-0.39 4.99,-0.25 9.99,-0.73 14.98,-1.42 v -28.65 l -10.85,1.04 c -3.61,0.33 -7.22,0.51 -10.84,0.51 -3.44,0 -6.02,-0.73 -7.74,-2.2"
      style="fill:#FFFFFF;fill-opacity:1;fill-rule:nonzero;stroke:none" id="path46" />
    <path
      d="m 1904.75,1345 h -16.01 l -12.91,19.62 h -1.03 c -5.67,-6.19 -12.6,-11.36 -20.78,-15.48 -8.17,-4.14 -17.08,-6.2 -26.71,-6.2 -8.96,0 -16.78,1.55 -23.5,4.64 -6.71,3.1 -12.34,7.27 -16.91,12.52 -4.56,5.25 -7.95,11.45 -10.19,18.59 -2.24,7.14 -3.36,14.84 -3.36,23.1 v 79.51 h 39.76 v -75.37 c 0,-5 0.39,-9.47 1.16,-13.43 0.77,-3.96 2.11,-7.31 4,-10.07 1.89,-2.75 4.44,-4.86 7.61,-6.32 3.19,-1.46 7.28,-2.19 12.26,-2.19 2.76,0 5.69,0.56 8.78,1.67 3.1,1.12 6.03,2.72 8.78,4.78 2.75,2.06 5.03,4.61 6.84,7.61 1.81,3.02 2.71,6.5 2.71,10.46 v 82.86 h 39.5 V 1345"
      style="fill:#FFFFFF;fill-opacity:1;fill-rule:nonzero;stroke:none" id="path48" />
    <path
      d="m 1956.67,1456.78 c 2.24,4.99 5.73,9.5 10.46,13.55 4.73,4.05 10.71,7.32 17.94,9.81 7.23,2.5 15.83,3.75 25.81,3.75 9.81,0 18.42,-1.21 25.82,-3.62 7.4,-2.41 13.68,-5.68 18.85,-9.81 5.15,-4.13 9.2,-8.95 12.13,-14.46 2.92,-5.5 4.82,-11.35 5.67,-17.55 h -39.49 c -0.86,5.68 -3.23,9.98 -7.1,12.91 -3.87,2.92 -9.07,4.39 -15.62,4.39 -6.54,0 -11.18,-1.17 -13.94,-3.49 -2.75,-2.32 -4.12,-4.86 -4.12,-7.61 0,-3.27 1.97,-5.81 5.93,-7.62 3.96,-1.81 8.94,-3.44 14.97,-4.9 6.02,-1.47 12.52,-3.06 19.49,-4.78 6.97,-1.72 13.47,-4.13 19.49,-7.23 6.02,-3.09 11.01,-7.27 14.97,-12.52 3.96,-5.25 5.94,-12 5.94,-20.26 0,-6.54 -1.46,-12.56 -4.39,-18.07 -2.92,-5.51 -7.05,-10.2 -12.39,-14.07 -5.33,-3.87 -11.74,-6.88 -19.23,-9.04 -7.48,-2.15 -15.7,-3.22 -24.65,-3.22 -9.3,0 -17.77,1.12 -25.43,3.35 -7.66,2.24 -14.33,5.38 -20.01,9.43 -5.68,4.04 -10.28,8.86 -13.81,14.45 -3.53,5.6 -5.8,11.66 -6.84,18.2 h 41.57 c 0.86,-4.99 3.39,-9.17 7.61,-12.52 4.22,-3.35 10.11,-5.03 17.68,-5.03 7.23,0 12.35,1.21 15.37,3.61 3,2.41 4.51,4.91 4.51,7.49 0,3.61 -1.98,6.37 -5.94,8.26 -3.96,1.89 -8.95,3.57 -14.97,5.03 -6.03,1.46 -12.48,3.06 -19.36,4.78 -6.89,1.72 -13.34,4.17 -19.36,7.35 -6.03,3.19 -11.02,7.49 -14.97,12.91 -3.96,5.42 -5.94,12.61 -5.94,21.56 0,4.99 1.12,9.98 3.35,14.97"
      style="fill:#FFFFFF;fill-opacity:1;fill-rule:nonzero;stroke:none" id="path50" />
    <path
      d="m 2157.29,1345.52 v 135.78 h -39.75 v -135.78 z m -3.99,157.85 c -4.05,-3.7 -9.34,-5.55 -15.88,-5.55 -6.54,0 -11.83,1.85 -15.88,5.55 -4.04,3.71 -6.07,8.22 -6.07,13.56 0,5.5 2.03,10.07 6.07,13.68 4.05,3.61 9.34,5.42 15.88,5.42 6.54,0 11.83,-1.81 15.88,-5.42 4.04,-3.61 6.06,-8.18 6.06,-13.68 0,-5.34 -2.02,-9.85 -6.06,-13.56"
      style="fill:#FFFFFF;fill-opacity:1;fill-rule:nonzero;stroke:none" id="path52" />
    <path
      d="m 2291.81,1383.98 c 4.99,6.71 7.49,16.52 7.49,29.43 0,12.91 -2.5,22.72 -7.49,29.43 -4.99,6.71 -12.31,10.07 -21.94,10.07 -9.3,0 -16.52,-3.36 -21.69,-10.07 -5.16,-6.71 -7.74,-16.52 -7.74,-29.43 0,-12.91 2.58,-22.72 7.74,-29.43 5.17,-6.7 12.39,-10.06 21.69,-10.06 9.63,0 16.95,3.36 21.94,10.06 z m 7.75,94.61 c 8.6,-3.53 15.78,-8.48 21.55,-14.84 5.77,-6.37 10.15,-13.86 13.16,-22.46 3.02,-8.6 4.52,-17.9 4.52,-27.88 0,-10.15 -1.5,-19.49 -4.52,-28.01 -3.01,-8.52 -7.39,-15.96 -13.16,-22.33 -5.77,-6.36 -12.95,-11.31 -21.55,-14.84 -8.61,-3.53 -18.51,-5.29 -29.69,-5.29 -11.19,0 -21.08,1.76 -29.69,5.29 -8.6,3.53 -15.79,8.48 -21.55,14.84 -5.76,6.37 -10.15,13.81 -13.17,22.33 -3.01,8.52 -4.51,17.86 -4.51,28.01 0,9.98 1.5,19.28 4.51,27.88 3.02,8.6 7.41,16.09 13.17,22.46 5.76,6.36 12.95,11.31 21.55,14.84 8.61,3.53 18.5,5.3 29.69,5.3 11.18,0 21.08,-1.77 29.69,-5.3"
      style="fill:#FFFFFF;fill-opacity:1;fill-rule:nonzero;stroke:none" id="path54" />
    <path
      d="m 2483.66,1479.24 c 6.72,-3.1 12.3,-7.27 16.78,-12.52 4.48,-5.25 7.83,-11.45 10.07,-18.59 2.23,-7.14 3.35,-14.84 3.35,-23.1 v -79.51 h -39.49 v 75.38 c 0,9.98 -1.68,17.81 -5.03,23.49 -3.36,5.68 -10.04,8.52 -20.01,8.52 -2.76,0 -5.73,-0.56 -8.91,-1.68 -3.18,-1.12 -6.11,-2.71 -8.77,-4.77 -2.68,-2.07 -4.91,-4.61 -6.72,-7.62 -1.8,-3.01 -2.71,-6.5 -2.71,-10.46 v -82.86 h -39.75 v 136.56 h 16 l 13.17,-19.88 h 1.03 c 5.68,6.19 12.6,11.35 20.78,15.49 8.18,4.13 17.08,6.2 26.72,6.2 8.95,0 16.77,-1.56 23.49,-4.65"
      style="fill:#FFFFFF;fill-opacity:1;fill-rule:nonzero;stroke:none" id="path56" />
  </g>
</svg>